<svg width="24" height="18" viewBox="0 0 24 18" fill="none" xmlns="http://www.w3.org/2000/svg">
<path d="M10.7312 17.3313C10.4311 17.6313 10.0242 17.7998 9.59995 17.7998C9.17569 17.7998 8.7688 17.6313 8.46875 17.3313L1.26875 10.1313C0.968798 9.8313 0.800293 9.42441 0.800293 9.00015C0.800293 8.57588 0.968798 8.16899 1.26875 7.86895L8.46875 0.668947C8.77051 0.377493 9.17468 0.216223 9.59419 0.219868C10.0137 0.223515 10.415 0.391783 10.7117 0.688437C11.0083 0.98509 11.1766 1.38639 11.1802 1.80591C11.1839 2.22542 11.0226 2.62958 10.7312 2.93135L6.39995 7.40015L21.6 7.40015C22.0243 7.40015 22.4313 7.56872 22.7313 7.86878C23.0314 8.16883 23.2 8.5758 23.2 9.00015C23.2 9.42449 23.0314 9.83146 22.7313 10.1315C22.4313 10.4316 22.0243 10.6001 21.6 10.6001L6.39995 10.6001L10.7312 15.0689C11.0311 15.369 11.1996 15.7759 11.1996 16.2001C11.1996 16.6244 11.0311 17.0313 10.7312 17.3313Z" fill="black"/>
</svg>
