<svg width="24" height="18" viewBox="0 0 24 18" fill="none" xmlns="http://www.w3.org/2000/svg">
<path d="M13.2688 0.668653C13.5689 0.3687 13.9758 0.200195 14.4 0.200195C14.8243 0.200195 15.2312 0.3687 15.5312 0.668653L22.7312 7.86865C23.0312 8.1687 23.1997 8.57559 23.1997 8.99985C23.1997 9.42412 23.0312 9.83101 22.7312 10.1311L15.5312 17.3311C15.2295 17.6225 14.8253 17.7838 14.4058 17.7801C13.9863 17.7765 13.585 17.6082 13.2883 17.3116C12.9917 17.0149 12.8234 16.6136 12.8198 16.1941C12.8161 15.7746 12.9774 15.3704 13.2688 15.0687L17.6 10.5999H2.40005C1.9757 10.5999 1.56874 10.4313 1.26868 10.1312C0.96862 9.83117 0.800049 9.4242 0.800049 8.99985C0.800049 8.57551 0.96862 8.16854 1.26868 7.86848C1.56874 7.56842 1.9757 7.39985 2.40005 7.39985H17.6L13.2688 2.93105C12.9689 2.63101 12.8004 2.22412 12.8004 1.79985C12.8004 1.37559 12.9689 0.968698 13.2688 0.668653Z" fill="black"/>
</svg>
