<svg width="113" height="113" viewBox="0 0 113 113" fill="none" xmlns="http://www.w3.org/2000/svg">
<path d="M68.3531 22.5684C63.9638 22.5684 59.673 23.8756 56.0234 26.3247C52.3738 28.7738 49.5292 32.2549 47.8495 36.3276C46.1698 40.4004 45.7303 44.8819 46.5866 49.2055C47.4429 53.5291 49.5566 57.5006 52.6603 60.6178C55.7641 63.7349 59.7185 65.8577 64.0235 66.7177C68.3285 67.5778 72.7908 67.1364 76.846 65.4494C80.9013 63.7624 84.3673 60.9056 86.8059 57.2402C89.2445 53.5748 90.5461 49.2655 90.5461 44.8572C90.5461 38.9458 88.2079 33.2766 84.0459 29.0966C79.8839 24.9166 74.2391 22.5684 68.3531 22.5684ZM57.7852 42.3856C57.7852 42.7602 57.637 43.1194 57.3733 43.3843C57.1096 43.6491 56.7519 43.7979 56.3789 43.7979C56.006 43.7979 55.6483 43.6491 55.3845 43.3843C55.1208 43.1194 54.9727 42.7602 54.9727 42.3856V40.7897C54.9727 40.4151 55.1208 40.0559 55.3845 39.791C55.6483 39.5262 56.006 39.3774 56.3789 39.3774C56.7519 39.3774 57.1096 39.5262 57.3733 39.791C57.637 40.0559 57.7852 40.4151 57.7852 40.7897V42.3856ZM71.6367 50.1534C71.3101 50.3341 70.9253 50.3771 70.5671 50.2729C70.2089 50.1688 69.9065 49.9259 69.7266 49.5979C69.5917 49.3504 69.3931 49.1439 69.1514 49.0001C68.9098 48.8562 68.634 48.7803 68.3531 48.7803C68.0722 48.7803 67.7965 48.8562 67.5549 49.0001C67.3132 49.1439 67.1145 49.3504 66.9797 49.5979C66.7976 49.9218 66.4956 50.1605 66.1392 50.2621C65.7829 50.3637 65.4011 50.32 65.0766 50.1405C64.7522 49.961 64.5114 49.6602 64.4065 49.3034C64.3016 48.9466 64.3411 48.5627 64.5164 48.235C64.8945 47.5449 65.45 46.9694 66.1251 46.5686C66.8002 46.1678 67.5701 45.9564 68.3543 45.9564C69.1385 45.9564 69.9084 46.1678 70.5835 46.5686C71.2586 46.9694 71.8142 47.5449 72.1922 48.235C72.2823 48.3979 72.3394 48.5771 72.3603 48.7622C72.3811 48.9474 72.3652 49.1349 72.3136 49.3139C72.262 49.4928 72.1756 49.6598 72.0594 49.8051C71.9432 49.9504 71.7996 50.0712 71.6367 50.1605V50.1534ZM81.736 42.3856C81.736 42.7602 81.5878 43.1194 81.3241 43.3843C81.0603 43.6491 80.7027 43.7979 80.3297 43.7979C79.9567 43.7979 79.5991 43.6491 79.3353 43.3843C79.0716 43.1194 78.9235 42.7602 78.9235 42.3856V40.7897C78.9235 40.4151 79.0716 40.0559 79.3353 39.791C79.5991 39.5262 79.9567 39.3774 80.3297 39.3774C80.7027 39.3774 81.0603 39.5262 81.3241 39.791C81.5878 40.0559 81.736 40.4151 81.736 40.7897V42.3856Z" fill="#999999"/>
<path d="M28.6405 70.7119L4.03117 95.4276C3.08198 96.3418 2.32406 97.4372 1.80183 98.6494C1.2796 99.8616 1.00358 101.166 0.989942 102.487C0.976303 103.808 1.22532 105.118 1.7224 106.341C2.21949 107.564 2.95463 108.675 3.88473 109.609C4.81484 110.542 5.9212 111.28 7.13896 111.779C8.35672 112.278 9.66137 112.528 10.9764 112.513C12.2915 112.499 13.5906 112.222 14.7974 111.697C16.0042 111.172 17.0946 110.41 18.0046 109.457L42.614 84.741C37.03 81.0982 32.2696 76.3188 28.6405 70.7119Z" fill="#999999"/>
<path d="M99.8296 13.2447C91.4751 4.87268 80.155 0.170898 68.3531 0.170898C56.5511 0.170898 45.231 4.87268 36.8765 13.2447C19.5327 30.6751 19.5327 59.0369 36.8765 76.4697C54.2202 93.9025 82.4741 93.9002 99.8296 76.4697C117.185 59.0393 117.185 30.6751 99.8296 13.2447ZM92.2991 68.9067C79.0968 82.1685 57.6117 82.1685 44.407 68.9067C31.2023 55.645 31.2023 34.0694 44.407 20.8077C57.6117 7.54596 79.0945 7.54596 92.2991 20.8077C105.504 34.0694 105.516 55.645 92.2991 68.9067Z" fill="#999999"/>
</svg>
